<svg width="73" height="73" viewBox="0 0 73 73" fill="none" xmlns="http://www.w3.org/2000/svg">
<path d="M37.2927 14.4403C37.0804 14.2372 36.798 14.1239 36.5043 14.1239C36.2105 14.1239 35.9281 14.2372 35.7158 14.4403L9.46716 39.5155C9.35569 39.6221 9.267 39.7503 9.20647 39.8922C9.14594 40.0341 9.11482 40.1868 9.11499 40.341L9.11072 63.875C9.11072 65.085 9.59141 66.2455 10.447 67.1012C11.3027 67.9568 12.4632 68.4375 13.6732 68.4375H27.375C27.98 68.4375 28.5602 68.1971 28.9881 67.7693C29.4159 67.3415 29.6562 66.7613 29.6562 66.1562V46.7656C29.6562 46.4631 29.7764 46.173 29.9903 45.9591C30.2042 45.7452 30.4943 45.625 30.7969 45.625H42.2031C42.5056 45.625 42.7957 45.7452 43.0096 45.9591C43.2236 46.173 43.3437 46.4631 43.3437 46.7656V66.1562C43.3437 66.7613 43.5841 67.3415 44.0119 67.7693C44.4397 68.1971 45.02 68.4375 45.625 68.4375H59.321C60.5311 68.4375 61.6916 67.9568 62.5472 67.1012C63.4028 66.2455 63.8835 65.085 63.8835 63.875V40.341C63.8837 40.1868 63.8526 40.0341 63.7921 39.8922C63.7315 39.7503 63.6428 39.6221 63.5314 39.5155L37.2927 14.4403Z" fill="black"/>
<path d="M69.9931 34.8104L59.3282 24.6076V9.125C59.3282 8.51997 59.0879 7.93973 58.6601 7.51191C58.2323 7.0841 57.652 6.84375 57.047 6.84375H50.2032C49.5982 6.84375 49.018 7.0841 48.5901 7.51191C48.1623 7.93973 47.922 8.51997 47.922 9.125V13.6875L39.6639 5.79152C38.8911 5.0102 37.7419 4.5625 36.5001 4.5625C35.2625 4.5625 34.1161 5.0102 33.3434 5.79295L3.01701 34.8076C2.13017 35.6631 2.01896 37.0703 2.82595 37.9971C3.0286 38.231 3.27673 38.4212 3.55524 38.5562C3.83375 38.6912 4.13681 38.7681 4.44598 38.7823C4.75516 38.7964 5.06397 38.7475 5.35364 38.6385C5.6433 38.5295 5.90776 38.3627 6.13091 38.1482L35.7159 9.87781C35.9281 9.67475 36.2106 9.56142 36.5043 9.56142C36.7981 9.56142 37.0805 9.67475 37.2928 9.87781L66.8806 38.1482C67.3164 38.5662 67.9002 38.7943 68.504 38.7825C69.1077 38.7708 69.6822 38.5201 70.1014 38.0855C70.9769 37.1787 70.9042 35.6816 69.9931 34.8104Z" fill="black"/>
</svg>
