<svg width="59" height="63" viewBox="0 0 59 63" fill="none" xmlns="http://www.w3.org/2000/svg">
<path d="M40.1279 4.95543C37.4293 2.04193 33.6602 0.4375 29.5001 0.4375C25.3177 0.4375 21.5361 2.03223 18.8501 4.92769C16.1349 7.85506 14.8119 11.8336 15.1226 16.1296C15.7383 24.6052 22.1879 31.5 29.5001 31.5C36.8122 31.5 43.2508 24.6066 43.8762 16.1324C44.191 11.8752 42.8597 7.90498 40.1279 4.95543ZM53.9063 62.5625H5.09381C4.4549 62.5708 3.82217 62.4366 3.24166 62.1696C2.66115 61.9026 2.14745 61.5096 1.73795 61.0191C0.836584 59.9416 0.473264 58.4703 0.742287 56.9823C1.91268 50.4897 5.5653 45.0358 11.3063 41.207C16.4067 37.8082 22.8674 35.9375 29.5001 35.9375C36.1327 35.9375 42.5935 37.8096 47.6938 41.207C53.4348 45.0344 57.0874 50.4883 58.2578 56.981C58.5269 58.4689 58.1635 59.9402 57.2622 61.0177C56.8528 61.5084 56.3392 61.9017 55.7586 62.169C55.1781 62.4362 54.5453 62.5706 53.9063 62.5625Z" fill="black"/>
</svg>
