<svg width="45" height="63" viewBox="0 0 45 63" fill="none" xmlns="http://www.w3.org/2000/svg">
<path d="M41.6686 23.396C39.9507 18.835 37.4457 14.6108 34.2677 10.9155C28.768 4.54912 21.5362 0.4375 15.8438 0.4375C15.5053 0.437752 15.1713 0.515444 14.8675 0.664628C14.5637 0.813811 14.298 1.03053 14.0908 1.2982C13.8836 1.56587 13.7405 1.8774 13.6722 2.20893C13.604 2.54046 13.6125 2.8832 13.6971 3.21094C15.6205 10.5605 11.6337 16.6718 7.41389 23.1409C3.91797 28.4991 0.3125 34.0335 0.3125 40.375C0.3125 52.6086 10.2664 62.5625 22.5 62.5625C34.7336 62.5625 44.6875 52.6086 44.6875 40.375C44.6875 34.3705 43.6724 28.6586 41.6686 23.396ZM26.9833 54.0605C25.5508 55.5859 23.755 55.9062 22.5 55.9062C21.245 55.9062 19.4492 55.5859 18.0167 54.0605C16.5843 52.5351 15.8438 50.1153 15.8438 47.0312C15.8438 43.545 17.0668 40.8909 18.2483 38.3254C18.9347 36.8361 19.635 35.3204 20.0511 33.698C20.0952 33.5215 20.1821 33.3586 20.3041 33.2236C20.4261 33.0886 20.5793 32.9857 20.7505 32.9239C20.9216 32.8621 21.1053 32.8433 21.2853 32.8692C21.4654 32.8952 21.6363 32.965 21.7831 33.0725C23.0514 34.0538 24.1791 35.2044 25.1348 36.4922C27.6544 39.8203 29.1562 43.7614 29.1562 47.0312C29.1562 50.1153 28.4046 52.5462 26.9833 54.0605Z" fill="black"/>
</svg>
